<svg width="108" height="40" viewBox="0 0 108 40" fill="none" xmlns="http://www.w3.org/2000/svg">
<path d="M39.6123 15.7817V15.5572L39.949 15.445C40.4577 15.2804 40.7121 14.9138 40.7121 14.3453V2.33764C40.7121 2.03839 40.6523 1.81395 40.5326 1.66432C40.4128 1.51469 40.2034 1.39499 39.9041 1.30521L39.6123 1.23788V1.01344L43.7196 0.0483398L43.9889 0.250337L43.9216 3.39252V14.3453C43.9216 14.9438 44.1685 15.3178 44.6623 15.4675L44.9765 15.5572V15.7817H39.6123Z" fill="white"/>
<path d="M47.9391 15.7817L43.9441 10.1707L48.0962 6.3327C48.2907 6.15315 48.403 5.96611 48.4329 5.7716C48.4778 5.56212 48.3506 5.41249 48.0513 5.32271L47.6698 5.21049V4.98605H51.014V5.21049L50.3406 5.39005C50.0115 5.49479 49.7421 5.62197 49.5327 5.7716C49.3381 5.90626 49.0987 6.10078 48.8144 6.35515L46.3007 8.71178L50.3182 14.3004C50.5576 14.6296 50.782 14.8839 50.9915 15.0635C51.201 15.243 51.4703 15.3927 51.7995 15.5124L51.8893 15.5572V15.7817H47.9391Z" fill="white"/>
<path fill-rule="evenodd" clip-rule="evenodd" d="M22.8006 4.64939C23.7732 4.64939 24.6036 4.85139 25.2919 5.25538C25.9802 5.64441 26.5039 6.18307 26.863 6.87136C27.2371 7.54469 27.4241 8.31527 27.4241 9.18311C27.4241 9.3477 27.4166 9.51977 27.4017 9.69932C27.3867 9.86392 27.3568 10.0135 27.3119 10.1482H20.6235C20.6385 11.7642 20.9228 12.9313 21.4764 13.6495C22.045 14.3527 22.8829 14.7044 23.9902 14.7044C24.7383 14.7044 25.3443 14.5847 25.8081 14.3453C26.272 14.1059 26.7059 13.7542 27.1099 13.2904L27.3343 13.4924C26.8705 14.3153 26.2495 14.9587 25.4715 15.4226C24.7084 15.8864 23.7882 16.1184 22.7108 16.1184C21.6485 16.1184 20.7058 15.8939 19.8829 15.445C19.0599 14.9812 18.4165 14.3228 17.9527 13.4699C17.4888 12.6171 17.2569 11.5996 17.2569 10.4175C17.2569 9.19059 17.5262 8.15068 18.0649 7.2978C18.6036 6.42996 19.2919 5.7716 20.1298 5.32271C20.9826 4.87383 21.8729 4.64939 22.8006 4.64939ZM22.7333 5.09827C22.2994 5.09827 21.9253 5.23294 21.6111 5.50227C21.3118 5.75664 21.0724 6.22048 20.8929 6.89381C20.7283 7.55217 20.6385 8.48734 20.6235 9.69932H24.4615C24.6111 8.06838 24.5513 6.89381 24.2819 6.17559C24.0126 5.45738 23.4964 5.09827 22.7333 5.09827Z" fill="white"/>
<path d="M4.82549 15.849L1.36909 6.35515C1.2045 5.87634 0.875322 5.53968 0.38155 5.34516L0 5.21049V4.98605H5.49882V5.21049L5.16215 5.30027C4.57861 5.47982 4.38409 5.83893 4.57861 6.37759L6.66591 12.7293L8.52878 7.79157L8.10234 6.51226C7.9976 6.18307 7.88538 5.93619 7.76568 5.7716C7.66094 5.59204 7.51879 5.46486 7.33924 5.39005L6.95769 5.21049V4.98605H11.6036V5.21049L11.2894 5.34516C11.065 5.43494 10.9303 5.55464 10.8854 5.70427C10.8405 5.85389 10.8704 6.07834 10.9752 6.37759L13.0401 12.6171L15.1722 6.42248C15.3817 5.85389 15.2695 5.49479 14.8356 5.34516L14.3418 5.21049V4.98605H17.0351V5.21049L16.4965 5.3676C16.2421 5.44242 16.055 5.56212 15.9353 5.72671C15.8306 5.87634 15.7333 6.08582 15.6436 6.35515L12.4116 15.849H11.267L8.77566 8.50978L6.12725 15.849H4.82549Z" fill="white"/>
<path fill-rule="evenodd" clip-rule="evenodd" d="M36.6674 5.25538C35.9791 4.85139 35.1487 4.64939 34.1761 4.64939C33.2484 4.64939 32.3581 4.87383 31.5053 5.32271C30.6674 5.7716 29.9791 6.42996 29.4404 7.2978C28.9017 8.15068 28.6324 9.19059 28.6324 10.4175C28.6324 11.5996 28.8643 12.6171 29.3282 13.4699C29.792 14.3228 30.4354 14.9812 31.2584 15.445C32.0813 15.8939 33.024 16.1184 34.0863 16.1184C35.1637 16.1184 36.0839 15.8864 36.847 15.4226C37.625 14.9587 38.246 14.3153 38.7098 13.4924L38.4854 13.2904C38.0814 13.7542 37.6475 14.1059 37.1836 14.3453C36.7198 14.5847 36.1138 14.7044 35.3657 14.7044C34.2584 14.7044 33.4205 14.3527 32.8519 13.6495C32.2983 12.9313 32.014 11.7642 31.999 10.1482H38.6874C38.7323 10.0135 38.7622 9.86392 38.7772 9.69932C38.7921 9.51977 38.7996 9.3477 38.7996 9.18311C38.7996 8.31527 38.6126 7.54469 38.2385 6.87136C37.8794 6.18307 37.3557 5.64441 36.6674 5.25538ZM32.9866 5.50227C33.3008 5.23294 33.6749 5.09827 34.1088 5.09827C34.8719 5.09827 35.3881 5.45738 35.6574 6.17559C35.9268 6.89381 35.9866 8.06838 35.837 9.69932H31.999C32.014 8.48734 32.1038 7.55217 32.2684 6.89381C32.4479 6.22048 32.6873 5.75664 32.9866 5.50227Z" fill="white"/>
<path fill-rule="evenodd" clip-rule="evenodd" d="M60.3171 5.25538C59.6288 4.85139 58.7983 4.64939 57.8258 4.64939C56.8981 4.64939 56.0078 4.87383 55.1549 5.32271C54.317 5.7716 53.6287 6.42996 53.09 7.2978C52.5514 8.15068 52.2821 9.19059 52.2821 10.4175C52.2821 11.5996 52.514 12.6171 52.9778 13.4699C53.4417 14.3228 54.0851 14.9812 54.908 15.445C55.731 15.8939 56.6736 16.1184 57.736 16.1184C58.8133 16.1184 59.7335 15.8864 60.4966 15.4226C61.2747 14.9587 61.8956 14.3153 62.3595 13.4924L62.135 13.2904C61.731 13.7542 61.2971 14.1059 60.8333 14.3453C60.3694 14.5847 59.7634 14.7044 59.0153 14.7044C57.9081 14.7044 57.0701 14.3527 56.5016 13.6495C55.9479 12.9313 55.6636 11.7642 55.6487 10.1482H62.337C62.3819 10.0135 62.4119 9.86392 62.4268 9.69932C62.4418 9.51977 62.4493 9.3477 62.4493 9.18311C62.4493 8.31527 62.2622 7.54469 61.8882 6.87136C61.5291 6.18307 61.0054 5.64441 60.3171 5.25538ZM56.6362 5.50227C56.9504 5.23294 57.3245 5.09827 57.7584 5.09827C58.5215 5.09827 59.0378 5.45738 59.3071 6.17559C59.5764 6.89381 59.6363 8.06838 59.4866 9.69932H55.6487C55.6636 8.48734 55.7534 7.55217 55.918 6.89381C56.0976 6.22048 56.337 5.75664 56.6362 5.50227Z" fill="white"/>
<path d="M63.5678 15.7817V15.5572L63.882 15.4675C64.4057 15.3178 64.6675 14.9513 64.6675 14.3677V7.34269C64.6675 7.01351 64.6152 6.7741 64.5104 6.62448C64.4057 6.45989 64.2037 6.34766 63.9044 6.28781L63.5678 6.19804V5.9736L67.4057 4.67183L67.6302 4.89628L67.8097 6.24293C68.3334 5.77908 68.9245 5.39753 69.5828 5.09827C70.2412 4.79902 70.8921 4.64939 71.5355 4.64939C72.523 4.64939 73.2786 4.91872 73.8023 5.45738C74.341 5.99604 74.6103 6.81899 74.6103 7.92624V14.3902C74.6103 14.9737 74.8946 15.3403 75.4632 15.4899L75.6652 15.5572V15.7817H70.3684V15.5572L70.6601 15.4675C71.1838 15.3029 71.4457 14.9363 71.4457 14.3677V7.20802C71.4457 6.25041 70.9669 5.7716 70.0093 5.7716C69.3509 5.7716 68.6327 6.10078 67.8546 6.75914V14.3902C67.8546 14.9737 68.1165 15.3403 68.6402 15.4899L68.8422 15.5572V15.7817H63.5678Z" fill="white"/>
<path fill-rule="evenodd" clip-rule="evenodd" d="M78.9224 15.5348C79.6256 15.9238 80.4187 16.1184 81.3015 16.1184C81.9299 16.1184 82.4985 16.0361 83.0072 15.8715C83.5309 15.7069 83.9948 15.4899 84.3988 15.2206L84.6008 16.0286L88.4387 15.7817V15.5572L88.2367 15.4899C87.9524 15.4151 87.7579 15.2879 87.6532 15.1084C87.5484 14.9138 87.496 14.667 87.496 14.3677V3.39252L87.5858 0.250337L87.3389 0.0483398L83.2541 1.03588V1.26032L83.6805 1.3501C83.9948 1.40995 84.1968 1.51469 84.2865 1.66432C84.3913 1.81395 84.4436 2.04587 84.4436 2.36009V5.27783C84.0696 5.06835 83.6431 4.91124 83.1643 4.8065C82.6855 4.70176 82.1843 4.64939 81.6606 4.64939C80.7628 4.64939 79.9324 4.86635 79.1693 5.30027C78.4062 5.71923 77.7927 6.36263 77.3288 7.23047C76.865 8.08335 76.6331 9.16815 76.6331 10.4849C76.6331 11.7866 76.8351 12.8565 77.2391 13.6944C77.658 14.5173 78.2191 15.1308 78.9224 15.5348ZM84.3314 14.7268C83.8077 15.1009 83.2317 15.2879 82.6032 15.2879C81.8401 15.2879 81.2192 14.9288 80.7404 14.2106C80.2616 13.4774 80.0222 12.2206 80.0222 10.44C80.0222 8.65941 80.2765 7.35765 80.7853 6.5347C81.294 5.69678 81.9075 5.27783 82.6257 5.27783C83.2092 5.27783 83.7778 5.45738 84.3314 5.81649V14.7268Z" fill="white"/>
<path d="M5.55341 34.8566L2.09701 25.3628C1.93242 24.884 1.60324 24.5473 1.10947 24.3528L0.72792 24.2181V23.9937H6.22674V24.2181L5.89007 24.3079C5.30653 24.4874 5.11201 24.8466 5.30653 25.3852L7.39383 31.7369L9.2567 26.7992L8.83026 25.5199C8.72552 25.1907 8.6133 24.9438 8.49359 24.7792C8.38885 24.5997 8.24671 24.4725 8.06716 24.3977L7.68561 24.2181V23.9937H12.3315V24.2181L12.0173 24.3528C11.7929 24.4426 11.6582 24.5623 11.6133 24.7119C11.5684 24.8615 11.5984 25.086 11.7031 25.3852L13.768 31.6247L15.9002 25.4301C16.1096 24.8615 15.9974 24.5024 15.5635 24.3528L15.0697 24.2181V23.9937H17.763V24.2181L17.2244 24.3752C16.97 24.45 16.783 24.5697 16.6633 24.7343C16.5585 24.884 16.4613 25.0934 16.3715 25.3628L13.1395 34.8566H11.9949L9.50358 27.5174L6.85517 34.8566H5.55341Z" fill="white"/>
<path fill-rule="evenodd" clip-rule="evenodd" d="M20.6108 34.4302C21.4487 34.8941 22.4363 35.126 23.5734 35.126C24.7106 35.126 25.6907 34.8941 26.5136 34.4302C27.3515 33.9514 27.9949 33.2856 28.4438 32.4327C28.9077 31.5648 29.1396 30.5399 29.1396 29.3578C29.1396 28.1758 28.8927 27.1583 28.3989 26.3054C27.9201 25.4525 27.2618 24.8017 26.4238 24.3528C25.5859 23.8889 24.6358 23.657 23.5734 23.657C22.5111 23.657 21.5535 23.8889 20.7006 24.3528C19.8627 24.8166 19.1968 25.475 18.7031 26.3279C18.2242 27.1807 17.9848 28.1907 17.9848 29.3578C17.9848 30.5249 18.2093 31.5424 18.6582 32.4102C19.122 33.2781 19.7729 33.9514 20.6108 34.4302ZM24.8303 34.2282C24.5161 34.5275 24.0971 34.6771 23.5734 34.6771C23.0497 34.6771 22.6233 34.5275 22.2941 34.2282C21.9799 33.929 21.748 33.3978 21.5983 32.6347C21.4637 31.8716 21.3963 30.7943 21.3963 29.4027C21.3963 27.9962 21.4637 26.9114 21.5983 26.1483C21.748 25.3852 21.9799 24.854 22.2941 24.5548C22.6233 24.2555 23.0497 24.1059 23.5734 24.1059C24.0971 24.1059 24.5161 24.2555 24.8303 24.5548C25.1445 24.854 25.369 25.3852 25.5036 26.1483C25.6533 26.9114 25.7281 27.9962 25.7281 29.4027C25.7281 30.7943 25.6533 31.8716 25.5036 32.6347C25.369 33.3978 25.1445 33.929 24.8303 34.2282Z" fill="white"/>
<path d="M30.1254 34.5649L30.462 34.4751C30.7613 34.3853 30.9633 34.2507 31.068 34.0711C31.1877 33.8915 31.2476 33.6596 31.2476 33.3753V26.3503C31.2476 26.0211 31.1877 25.7817 31.068 25.6321C30.9633 25.4675 30.7613 25.3553 30.462 25.2954L30.1254 25.2057V24.9812L33.9858 23.6795L34.2102 23.9039L34.4122 25.8341V26.0136C34.6217 25.5947 34.891 25.2131 35.2202 24.869C35.5643 24.5099 35.9384 24.2181 36.3424 23.9937C36.7614 23.7692 37.1728 23.657 37.5768 23.657C38.1454 23.657 38.5793 23.8141 38.8786 24.1283C39.1778 24.4426 39.3275 24.8391 39.3275 25.3179C39.3275 25.8266 39.1778 26.2231 38.8786 26.5074C38.5943 26.7768 38.2502 26.9114 37.8462 26.9114C37.2177 26.9114 36.6641 26.5972 36.1853 25.9688L36.1404 25.9239C35.9908 25.7144 35.8187 25.6022 35.6242 25.5872C35.4297 25.5573 35.2501 25.6471 35.0855 25.8565C34.9359 25.9912 34.8087 26.1558 34.704 26.3503C34.6142 26.5299 34.5244 26.7393 34.4346 26.9787V33.2407C34.4346 33.8392 34.6965 34.2132 35.2202 34.3629L35.9384 34.5649V34.7893H30.1254V34.5649Z" fill="white"/>
<path d="M39.9317 34.4526L39.595 34.5649V34.7893H44.9592V34.5649L44.645 34.4751C44.1512 34.3255 43.9043 33.9514 43.9043 33.3529V22.4001L43.9717 19.258L43.7023 19.056L39.595 20.0211V20.2455L39.8868 20.3128C40.1861 20.4026 40.3956 20.5223 40.5153 20.6719C40.635 20.8216 40.6948 21.046 40.6948 21.3453V33.3529C40.6948 33.9215 40.4404 34.2881 39.9317 34.4526Z" fill="white"/>
<path d="M43.9268 29.1783L47.9218 34.7893H51.872V34.5649L51.7822 34.52C51.453 34.4003 51.1837 34.2507 50.9742 34.0711C50.7647 33.8915 50.5403 33.6372 50.3009 33.308L46.2834 27.7194L48.7971 25.3628C49.0814 25.1084 49.3208 24.9139 49.5154 24.7792C49.7248 24.6296 49.9942 24.5024 50.3233 24.3977L50.9967 24.2181V23.9937H47.6525V24.2181L48.034 24.3303C48.3333 24.4201 48.4605 24.5697 48.4156 24.7792C48.3857 24.9737 48.2734 25.1608 48.0789 25.3403L43.9268 29.1783Z" fill="white"/>
<path d="M56.4085 35.126C55.6753 35.126 55.017 35.0362 54.4334 34.8566C53.8499 34.6921 53.3112 34.4826 52.8175 34.2282L52.8399 31.5574H53.0643L53.8274 32.904C54.1566 33.5025 54.5157 33.9514 54.9048 34.2507C55.3088 34.5349 55.8175 34.6771 56.431 34.6771C57.1492 34.6771 57.7252 34.52 58.1592 34.2058C58.608 33.8766 58.8325 33.4427 58.8325 32.904C58.8325 32.4102 58.6754 32.0062 58.3612 31.692C58.0469 31.3778 57.4634 31.0935 56.6105 30.8391L55.6679 30.5474C54.7551 30.278 54.0369 29.8591 53.5132 29.2905C52.9895 28.7219 52.7277 28.0261 52.7277 27.2032C52.7277 26.2156 53.1167 25.3777 53.8948 24.6894C54.6728 24.0012 55.7876 23.657 57.239 23.657C57.8225 23.657 58.3686 23.7243 58.8774 23.859C59.4011 23.9787 59.9023 24.1657 60.3811 24.4201L60.2465 26.8441H60.022L59.2365 25.4525C58.9522 24.9588 58.6679 24.6146 58.3836 24.4201C58.1143 24.2106 57.7028 24.1059 57.1492 24.1059C56.6404 24.1059 56.1616 24.248 55.7127 24.5323C55.2639 24.8166 55.0394 25.2206 55.0394 25.7443C55.0394 26.2531 55.2265 26.657 55.6005 26.9563C55.9896 27.2556 56.5581 27.5324 57.3063 27.7867L58.3163 28.0785C59.3936 28.4077 60.1642 28.8641 60.628 29.4476C61.0919 30.0162 61.3238 30.7045 61.3238 31.5125C61.3238 32.6047 60.8899 33.4801 60.022 34.1384C59.1691 34.7968 57.9646 35.126 56.4085 35.126Z" fill="white"/>
<path d="M62.2871 34.4751L62.0178 34.5649V34.7893H67.2697V34.5649L67.0902 34.52C66.5515 34.3554 66.2822 33.9813 66.2822 33.3978V25.5872C66.6862 25.273 67.0827 25.056 67.4717 24.9363C67.8608 24.8017 68.2199 24.7343 68.549 24.7343C69.0578 24.7343 69.4094 24.8466 69.6039 25.071C69.8134 25.2954 69.9181 25.7069 69.9181 26.3054V33.3529C69.9181 33.9364 69.6488 34.318 69.1102 34.4975L68.8408 34.5649V34.7893H74.0928V34.5649L73.9132 34.4975C73.6139 34.4078 73.4045 34.2731 73.2848 34.0935C73.1651 33.914 73.1052 33.6746 73.1052 33.3753V27.0461C73.1052 25.8939 72.8134 25.0411 72.2299 24.4874C71.6613 23.9338 70.8907 23.657 69.9181 23.657C69.185 23.657 68.5116 23.8141 67.8982 24.1283C67.2997 24.4276 66.7386 24.7942 66.2149 25.2281V22.4226L66.3046 19.258L65.9455 19.056L61.9954 20.0211V20.2455L62.332 20.3353C62.6313 20.4101 62.8333 20.5223 62.938 20.6719C63.0428 20.8216 63.0951 21.0535 63.0951 21.3677V33.3529C63.0951 33.9215 62.8258 34.2955 62.2871 34.4751Z" fill="white"/>
<path fill-rule="evenodd" clip-rule="evenodd" d="M80.6482 35.126C79.511 35.126 78.5235 34.8941 77.6856 34.4302C76.8477 33.9514 76.1968 33.2781 75.7329 32.4102C75.284 31.5424 75.0596 30.5249 75.0596 29.3578C75.0596 28.1907 75.299 27.1807 75.7778 26.3279C76.2716 25.475 76.9374 24.8166 77.7753 24.3528C78.6282 23.8889 79.5858 23.657 80.6482 23.657C81.7105 23.657 82.6607 23.8889 83.4986 24.3528C84.3365 24.8017 84.9949 25.4525 85.4737 26.3054C85.9675 27.1583 86.2143 28.1758 86.2143 29.3578C86.2143 30.5399 85.9824 31.5648 85.5186 32.4327C85.0697 33.2856 84.4263 33.9514 83.5884 34.4302C82.7654 34.8941 81.7854 35.126 80.6482 35.126ZM80.6482 34.6771C81.1719 34.6771 81.5909 34.5275 81.9051 34.2282C82.2193 33.929 82.4437 33.3978 82.5784 32.6347C82.728 31.8716 82.8028 30.7943 82.8028 29.4027C82.8028 27.9962 82.728 26.9114 82.5784 26.1483C82.4437 25.3852 82.2193 24.854 81.9051 24.5548C81.5909 24.2555 81.1719 24.1059 80.6482 24.1059C80.1245 24.1059 79.6981 24.2555 79.3689 24.5548C79.0547 24.854 78.8227 25.3852 78.6731 26.1483C78.5384 26.9114 78.4711 27.9962 78.4711 29.4027C78.4711 30.7943 78.5384 31.8716 78.6731 32.6347C78.8227 33.3978 79.0547 33.929 79.3689 34.2282C79.6981 34.5275 80.1245 34.6771 80.6482 34.6771Z" fill="white"/>
<path fill-rule="evenodd" clip-rule="evenodd" d="M86.981 39.727V39.9515H92.4349V39.727L92.0084 39.6148C91.4698 39.4652 91.2005 39.0911 91.2005 38.4926V34.6098C92.0084 34.9539 93.0035 35.126 94.1855 35.126C95.6968 35.126 96.8639 34.6098 97.6868 33.5773C98.5247 32.5449 98.9437 31.1309 98.9437 29.3354C98.9437 27.5099 98.5621 26.1109 97.799 25.1383C97.0509 24.1508 96.0334 23.657 94.7466 23.657C94.1032 23.657 93.4748 23.7393 92.8613 23.9039C92.2628 24.0685 91.7167 24.3004 91.2229 24.5997L91.0209 23.9039L90.7965 23.6795L86.981 24.9812V25.2057L87.2952 25.273C87.5944 25.3328 87.7964 25.4451 87.9012 25.6097C88.0209 25.7742 88.0807 26.0211 88.0807 26.3503V38.5599C88.0807 39.1285 87.8039 39.4876 87.2503 39.6372L86.981 39.727ZM94.8813 33.308C94.4474 34.0861 93.8563 34.4751 93.1082 34.4751C92.4498 34.4751 91.8364 34.3554 91.2678 34.116V25.071C91.9411 24.7119 92.5546 24.5323 93.1082 24.5323C93.9012 24.5323 94.5072 24.8989 94.9262 25.6321C95.3451 26.3503 95.5546 27.6147 95.5546 29.4252C95.5546 31.2357 95.3302 32.5299 94.8813 33.308Z" fill="white"/>
<path d="M105 35C106.657 35 108 33.6569 108 32C108 30.3431 106.657 29 105 29C103.343 29 102 30.3431 102 32C102 33.6569 103.343 35 105 35Z" fill="#55E363"/>
</svg>
